<?xml version="1.0" encoding="UTF-8" standalone="no"?>
<!DOCTYPE svg PUBLIC "-//W3C//DTD SVG 1.1//EN"
 "http://www.w3.org/Graphics/SVG/1.1/DTD/svg11.dtd">
<!-- Generated by graphviz version 2.38.0 (20140413.2041)
 -->
<!-- Title: finite_state_machine Pages: 1 -->
<svg width="194pt" height="360pt"
 viewBox="0.00 0.00 193.67 360.00" xmlns="http://www.w3.org/2000/svg" xmlns:xlink="http://www.w3.org/1999/xlink">
<g id="graph0" class="graph" transform="scale(0.292114 0.292114) rotate(0) translate(4 1228.4)">
<title>finite_state_machine</title>
<polygon fill="white" stroke="none" points="-4,4 -4,-1228.4 659,-1228.4 659,4 -4,4"/>
<!-- IDLE -->
<g id="node1" class="node"><title>IDLE</title>
<ellipse fill="none" stroke="black" cx="357" cy="-1195.7" rx="24.8692" ry="24.8692"/>
<ellipse fill="none" stroke="black" cx="357" cy="-1195.7" rx="28.897" ry="28.897"/>
<text text-anchor="middle" x="357" y="-1192" font-family="Times,serif" font-size="14.00">Idle</text>
</g>
<!-- WAIT_STRIKE -->
<g id="node2" class="node"><title>WAIT_STRIKE</title>
<polygon fill="none" stroke="black" points="152,-1116 0,-1116 0,-1063 152,-1063 152,-1116"/>
<text text-anchor="middle" x="76" y="-1100.8" font-family="Times,serif" font-size="14.00">Wait to heat strike water</text>
<text text-anchor="middle" x="76" y="-1085.8" font-family="Times,serif" font-size="14.00">Output=0</text>
<text text-anchor="middle" x="76" y="-1070.8" font-family="Times,serif" font-size="14.00">Pump off</text>
</g>
<!-- IDLE&#45;&gt;WAIT_STRIKE -->
<g id="edge1" class="edge"><title>IDLE&#45;&gt;WAIT_STRIKE</title>
<path fill="none" stroke="black" d="M328.256,-1192.64C286.653,-1188.75 208.068,-1177.93 148,-1149 134.206,-1142.36 120.728,-1132.58 109.233,-1122.91"/>
<polygon fill="black" stroke="black" points="111.453,-1120.21 101.613,-1116.28 106.857,-1125.49 111.453,-1120.21"/>
<text text-anchor="middle" x="161" y="-1137.8" font-family="Times,serif" font-size="14.00">Start</text>
</g>
<!-- STRIKE -->
<g id="node3" class="node"><title>STRIKE</title>
<polygon fill="none" stroke="black" points="243,-1012 133,-1012 133,-959 243,-959 243,-1012"/>
<text text-anchor="middle" x="188" y="-996.8" font-family="Times,serif" font-size="14.00">Heat strike water</text>
<text text-anchor="middle" x="188" y="-981.8" font-family="Times,serif" font-size="14.00">output=SO</text>
<text text-anchor="middle" x="188" y="-966.8" font-family="Times,serif" font-size="14.00">Pump on</text>
</g>
<!-- WAIT_STRIKE&#45;&gt;STRIKE -->
<g id="edge2" class="edge"><title>WAIT_STRIKE&#45;&gt;STRIKE</title>
<path fill="none" stroke="black" d="M91.2103,-1062.87C98.4567,-1051.96 107.774,-1039.57 118,-1030 122.526,-1025.77 127.524,-1021.72 132.705,-1017.92"/>
<polygon fill="black" stroke="black" points="134.761,-1020.75 140.955,-1012.16 130.753,-1015.01 134.761,-1020.75"/>
<text text-anchor="middle" x="146" y="-1033.8" font-family="Times,serif" font-size="14.00">time&gt;=Sd</text>
</g>
<!-- STRIKE&#45;&gt;IDLE -->
<g id="edge4" class="edge"><title>STRIKE&#45;&gt;IDLE</title>
<path fill="none" stroke="black" d="M184.039,-1012.06C181.113,-1040.1 180.734,-1085.2 202,-1116 229.353,-1155.61 282.792,-1176.41 319.193,-1186.47"/>
<polygon fill="black" stroke="black" points="318.412,-1189.88 328.972,-1189.02 320.183,-1183.11 318.412,-1189.88"/>
<text text-anchor="middle" x="235" y="-1085.8" font-family="Times,serif" font-size="14.00">time&gt;=ASd</text>
</g>
<!-- STRIKE_ALARM -->
<g id="node4" class="node"><title>STRIKE_ALARM</title>
<polygon fill="none" stroke="black" points="295,-908 207,-908 207,-872 295,-872 295,-908"/>
<text text-anchor="middle" x="251" y="-886.3" font-family="Times,serif" font-size="14.00">Strike Alarm</text>
</g>
<!-- STRIKE&#45;&gt;STRIKE_ALARM -->
<g id="edge3" class="edge"><title>STRIKE&#45;&gt;STRIKE_ALARM</title>
<path fill="none" stroke="black" d="M192.334,-958.8C195.026,-947.995 199.3,-935.707 206,-926 208.737,-922.034 212.061,-918.311 215.649,-914.881"/>
<polygon fill="black" stroke="black" points="218.015,-917.463 223.283,-908.27 213.432,-912.171 218.015,-917.463"/>
<text text-anchor="middle" x="234" y="-929.8" font-family="Times,serif" font-size="14.00">temp&gt;=St</text>
</g>
<!-- STRIKE_ALARM&#45;&gt;IDLE -->
<g id="edge6" class="edge"><title>STRIKE_ALARM&#45;&gt;IDLE</title>
<path fill="none" stroke="black" d="M257.106,-908.281C258.901,-913.878 260.723,-920.151 262,-926 273.37,-978.081 260.835,-994.203 277,-1045 290.767,-1088.26 316.937,-1133.67 335.596,-1162.97"/>
<polygon fill="black" stroke="black" points="332.758,-1165.03 341.124,-1171.53 338.638,-1161.23 332.758,-1165.03"/>
<text text-anchor="middle" x="310" y="-1033.8" font-family="Times,serif" font-size="14.00">time&gt;=ASd</text>
</g>
<!-- STRIKE_PAUSE -->
<g id="node5" class="node"><title>STRIKE_PAUSE</title>
<polygon fill="none" stroke="black" points="294,-821 208,-821 208,-768 294,-768 294,-821"/>
<text text-anchor="middle" x="251" y="-805.8" font-family="Times,serif" font-size="14.00">Pause</text>
<text text-anchor="middle" x="251" y="-790.8" font-family="Times,serif" font-size="14.00">(Add grains)</text>
<text text-anchor="middle" x="251" y="-775.8" font-family="Times,serif" font-size="14.00">x=1</text>
</g>
<!-- STRIKE_ALARM&#45;&gt;STRIKE_PAUSE -->
<g id="edge5" class="edge"><title>STRIKE_ALARM&#45;&gt;STRIKE_PAUSE</title>
<path fill="none" stroke="black" d="M251,-871.851C251,-860.508 251,-845.215 251,-831.295"/>
<polygon fill="black" stroke="black" points="254.5,-831.007 251,-821.007 247.5,-831.007 254.5,-831.007"/>
<text text-anchor="middle" x="284.5" y="-842.8" font-family="Times,serif" font-size="14.00">button press</text>
</g>
<!-- MASH_STEP_INIT -->
<g id="node6" class="node"><title>MASH_STEP_INIT</title>
<polygon fill="none" stroke="black" points="356,-717 252,-717 252,-649 356,-649 356,-717"/>
<text text-anchor="middle" x="304" y="-701.8" font-family="Times,serif" font-size="14.00">Init mash step x</text>
<text text-anchor="middle" x="304" y="-686.8" font-family="Times,serif" font-size="14.00">setpoint=Ptx</text>
<text text-anchor="middle" x="304" y="-671.8" font-family="Times,serif" font-size="14.00">output=PO</text>
<text text-anchor="middle" x="304" y="-656.8" font-family="Times,serif" font-size="14.00">Pump on</text>
</g>
<!-- STRIKE_PAUSE&#45;&gt;MASH_STEP_INIT -->
<g id="edge7" class="edge"><title>STRIKE_PAUSE&#45;&gt;MASH_STEP_INIT</title>
<path fill="none" stroke="black" d="M247.284,-767.847C246.796,-757.287 247.626,-745.171 252,-735 253.417,-731.706 255.157,-728.515 257.133,-725.446"/>
<polygon fill="black" stroke="black" points="260.143,-727.262 263.25,-717.133 254.505,-723.113 260.143,-727.262"/>
<text text-anchor="middle" x="297.5" y="-738.8" font-family="Times,serif" font-size="14.00">quit button press</text>
</g>
<!-- MASH_STEP_INIT&#45;&gt;IDLE -->
<g id="edge9" class="edge"><title>MASH_STEP_INIT&#45;&gt;IDLE</title>
<path fill="none" stroke="black" d="M332.33,-717.005C336.337,-722.75 340.08,-728.86 343,-735 354.481,-759.144 357,-766.766 357,-793.5 357,-1090.5 357,-1090.5 357,-1090.5 357,-1112.43 357,-1136.95 357,-1156.7"/>
<polygon fill="black" stroke="black" points="353.5,-1156.84 357,-1166.84 360.5,-1156.84 353.5,-1156.84"/>
<text text-anchor="middle" x="390" y="-929.8" font-family="Times,serif" font-size="14.00">time&gt;=ASd</text>
</g>
<!-- MASH_STEP -->
<g id="node7" class="node"><title>MASH_STEP</title>
<polygon fill="none" stroke="black" points="396.5,-583 323.5,-583 323.5,-545 396.5,-545 396.5,-583"/>
<text text-anchor="middle" x="360" y="-567.8" font-family="Times,serif" font-size="14.00">Mash step</text>
<text text-anchor="middle" x="360" y="-552.8" font-family="Times,serif" font-size="14.00">x=x+1</text>
</g>
<!-- MASH_STEP_INIT&#45;&gt;MASH_STEP -->
<g id="edge8" class="edge"><title>MASH_STEP_INIT&#45;&gt;MASH_STEP</title>
<path fill="none" stroke="black" d="M261.783,-648.888C247.999,-634.057 238.791,-616.463 250,-601 264.485,-581.018 290.392,-571.923 313.426,-567.868"/>
<polygon fill="black" stroke="black" points="314.042,-571.315 323.417,-566.38 313.011,-564.391 314.042,-571.315"/>
<text text-anchor="middle" x="294" y="-612.3" font-family="Times,serif" font-size="14.00">temp&gt;=setpoint</text>
</g>
<!-- MASH_STEP&#45;&gt;MASH_STEP_INIT -->
<g id="edge10" class="edge"><title>MASH_STEP&#45;&gt;MASH_STEP_INIT</title>
<path fill="none" stroke="black" d="M355.36,-583.157C351.564,-596.709 345.588,-615.485 338,-631 336.551,-633.963 334.954,-636.957 333.266,-639.93"/>
<polygon fill="black" stroke="black" points="330.127,-638.359 327.989,-648.736 336.132,-641.957 330.127,-638.359"/>
<text text-anchor="middle" x="381.5" y="-619.8" font-family="Times,serif" font-size="14.00">x&lt;=4 and</text>
<text text-anchor="middle" x="381.5" y="-604.8" font-family="Times,serif" font-size="14.00">time&gt;=Pdx</text>
</g>
<!-- BOIL_UP_ALARM -->
<g id="node8" class="node"><title>BOIL_UP_ALARM</title>
<polygon fill="none" stroke="black" points="461,-494 365,-494 365,-458 461,-458 461,-494"/>
<text text-anchor="middle" x="413" y="-472.3" font-family="Times,serif" font-size="14.00">Boil up Alarm</text>
</g>
<!-- MASH_STEP&#45;&gt;BOIL_UP_ALARM -->
<g id="edge11" class="edge"><title>MASH_STEP&#45;&gt;BOIL_UP_ALARM</title>
<path fill="none" stroke="black" d="M371.24,-544.762C378.745,-532.583 388.728,-516.385 397.051,-502.879"/>
<polygon fill="black" stroke="black" points="400.23,-504.392 402.497,-494.042 394.271,-500.719 400.23,-504.392"/>
<text text-anchor="middle" x="403" y="-515.8" font-family="Times,serif" font-size="14.00">x&gt;4</text>
</g>
<!-- BOIL_UP_ALARM&#45;&gt;IDLE -->
<g id="edge13" class="edge"><title>BOIL_UP_ALARM&#45;&gt;IDLE</title>
<path fill="none" stroke="black" d="M421.048,-494.036C428.356,-511.09 438,-538.278 438,-563 438,-1090.5 438,-1090.5 438,-1090.5 438,-1124.32 411.074,-1153.78 388.271,-1172.66"/>
<polygon fill="black" stroke="black" points="386.083,-1169.93 380.429,-1178.89 390.436,-1175.41 386.083,-1169.93"/>
<text text-anchor="middle" x="471" y="-842.8" font-family="Times,serif" font-size="14.00">time&gt;=ASd</text>
</g>
<!-- BOIL_UP_PAUSE -->
<g id="node9" class="node"><title>BOIL_UP_PAUSE</title>
<polygon fill="none" stroke="black" points="486.5,-407 339.5,-407 339.5,-369 486.5,-369 486.5,-407"/>
<text text-anchor="middle" x="413" y="-391.8" font-family="Times,serif" font-size="14.00">Pause</text>
<text text-anchor="middle" x="413" y="-376.8" font-family="Times,serif" font-size="14.00">(Remove grains/sparge)</text>
</g>
<!-- BOIL_UP_ALARM&#45;&gt;BOIL_UP_PAUSE -->
<g id="edge12" class="edge"><title>BOIL_UP_ALARM&#45;&gt;BOIL_UP_PAUSE</title>
<path fill="none" stroke="black" d="M413,-457.597C413,-446.056 413,-430.647 413,-417.357"/>
<polygon fill="black" stroke="black" points="416.5,-417.268 413,-407.268 409.5,-417.268 416.5,-417.268"/>
<text text-anchor="middle" x="446.5" y="-428.8" font-family="Times,serif" font-size="14.00">button press</text>
</g>
<!-- BOIL_UP -->
<g id="node10" class="node"><title>BOIL_UP</title>
<polygon fill="none" stroke="black" points="553.5,-318 476.5,-318 476.5,-265 553.5,-265 553.5,-318"/>
<text text-anchor="middle" x="515" y="-302.8" font-family="Times,serif" font-size="14.00">Boil up</text>
<text text-anchor="middle" x="515" y="-287.8" font-family="Times,serif" font-size="14.00">output=SO</text>
<text text-anchor="middle" x="515" y="-272.8" font-family="Times,serif" font-size="14.00">Pump off</text>
</g>
<!-- BOIL_UP_PAUSE&#45;&gt;BOIL_UP -->
<g id="edge14" class="edge"><title>BOIL_UP_PAUSE&#45;&gt;BOIL_UP</title>
<path fill="none" stroke="black" d="M408.757,-368.556C407.426,-358.157 407.676,-345.407 414,-336 425.937,-318.244 446.778,-307.697 466.439,-301.451"/>
<polygon fill="black" stroke="black" points="467.606,-304.758 476.255,-298.639 465.678,-298.028 467.606,-304.758"/>
<text text-anchor="middle" x="459.5" y="-339.8" font-family="Times,serif" font-size="14.00">quit button press</text>
</g>
<!-- BOIL_UP&#45;&gt;IDLE -->
<g id="edge16" class="edge"><title>BOIL_UP&#45;&gt;IDLE</title>
<path fill="none" stroke="black" d="M516.673,-318.157C517.769,-337.157 519,-363.682 519,-387 519,-1090.5 519,-1090.5 519,-1090.5 519,-1149.07 443.169,-1176.27 395.27,-1187.61"/>
<polygon fill="black" stroke="black" points="394.214,-1184.26 385.218,-1189.86 395.741,-1191.09 394.214,-1184.26"/>
<text text-anchor="middle" x="552" y="-738.8" font-family="Times,serif" font-size="14.00">time&gt;=ASd</text>
</g>
<!-- HOTBREAK -->
<g id="node11" class="node"><title>HOTBREAK</title>
<polygon fill="none" stroke="black" points="572,-214 458,-214 458,-176 572,-176 572,-214"/>
<text text-anchor="middle" x="515" y="-198.8" font-family="Times,serif" font-size="14.00">Wait for hotbreak</text>
<text text-anchor="middle" x="515" y="-183.8" font-family="Times,serif" font-size="14.00">output=hO</text>
</g>
<!-- BOIL_UP&#45;&gt;HOTBREAK -->
<g id="edge15" class="edge"><title>BOIL_UP&#45;&gt;HOTBREAK</title>
<path fill="none" stroke="black" d="M515,-264.677C515,-252.126 515,-237.014 515,-224.166"/>
<polygon fill="black" stroke="black" points="518.5,-224.011 515,-214.011 511.5,-224.011 518.5,-224.011"/>
<text text-anchor="middle" x="544" y="-235.8" font-family="Times,serif" font-size="14.00">temp&gt;=Ht</text>
</g>
<!-- BOIL -->
<g id="node12" class="node"><title>BOIL</title>
<polygon fill="none" stroke="black" points="598,-125 522,-125 522,-87 598,-87 598,-125"/>
<text text-anchor="middle" x="560" y="-109.8" font-family="Times,serif" font-size="14.00">Boil</text>
<text text-anchor="middle" x="560" y="-94.8" font-family="Times,serif" font-size="14.00">output=bO</text>
</g>
<!-- HOTBREAK&#45;&gt;BOIL -->
<g id="edge17" class="edge"><title>HOTBREAK&#45;&gt;BOIL</title>
<path fill="none" stroke="black" d="M517.475,-175.769C519.367,-165.682 522.601,-153.168 528,-143 529.792,-139.626 531.963,-136.309 534.322,-133.137"/>
<polygon fill="black" stroke="black" points="537.243,-135.094 540.869,-125.139 531.827,-130.66 537.243,-135.094"/>
<text text-anchor="middle" x="557" y="-146.8" font-family="Times,serif" font-size="14.00">time&gt;=Hd</text>
</g>
<!-- BOIL&#45;&gt;IDLE -->
<g id="edge20" class="edge"><title>BOIL&#45;&gt;IDLE</title>
<path fill="none" stroke="black" d="M575.109,-125.257C579.081,-130.715 583.069,-136.881 586,-143 596.154,-164.199 600,-170.495 600,-194 600,-1090.5 600,-1090.5 600,-1090.5 600,-1178.26 464.47,-1193.05 395.842,-1194.92"/>
<polygon fill="black" stroke="black" points="395.76,-1191.42 385.83,-1195.11 395.895,-1198.42 395.76,-1191.42"/>
<text text-anchor="middle" x="627.5" y="-612.3" font-family="Times,serif" font-size="14.00">time&gt;=bd</text>
</g>
<!-- HOPALARM -->
<g id="node13" class="node"><title>HOPALARM</title>
<polygon fill="none" stroke="black" points="621.5,-36 498.5,-36 498.5,-0 621.5,-0 621.5,-36"/>
<text text-anchor="middle" x="560" y="-14.3" font-family="Times,serif" font-size="14.00">Hop addition alarm</text>
</g>
<!-- BOIL&#45;&gt;HOPALARM -->
<g id="edge18" class="edge"><title>BOIL&#45;&gt;HOPALARM</title>
<path fill="none" stroke="black" d="M535.536,-86.7156C530.448,-81.5978 525.789,-75.6052 523,-69 519.298,-60.2331 522.529,-51.577 528.359,-43.9943"/>
<polygon fill="black" stroke="black" points="531.305,-45.962 535.5,-36.2331 526.153,-41.2224 531.305,-45.962"/>
<text text-anchor="middle" x="554" y="-57.8" font-family="Times,serif" font-size="14.00">time==hdx</text>
</g>
<!-- HOPALARM&#45;&gt;BOIL -->
<g id="edge19" class="edge"><title>HOPALARM&#45;&gt;BOIL</title>
<path fill="none" stroke="black" d="M575.578,-36.3511C579.414,-41.651 582.995,-47.7423 585,-54 587.539,-61.9231 585.689,-70.1636 582.067,-77.6515"/>
<polygon fill="black" stroke="black" points="578.819,-76.2667 576.728,-86.6532 584.839,-79.8375 578.819,-76.2667"/>
</g>
</g>
</svg>
